<mxfile host="app.diagrams.net" agent="Mozilla/5.0 (Windows NT 10.0; Win64; x64; rv:138.0) Gecko/20100101 Firefox/138.0" version="27.0.9">
  <diagram name="Page-1" id="O64YkhGJRJFvvmZLATnH">
    <mxGraphModel dx="2059" dy="657" grid="1" gridSize="10" guides="1" tooltips="1" connect="1" arrows="1" fold="1" page="1" pageScale="1" pageWidth="850" pageHeight="1100" math="0" shadow="0">
      <root>
        <mxCell id="0" />
        <mxCell id="1" parent="0" />
        <mxCell id="7WJoirEgyPjlSJRLRqlb-44" style="edgeStyle=none;rounded=0;orthogonalLoop=1;jettySize=auto;html=1;exitX=1;exitY=0.5;exitDx=0;exitDy=0;entryX=0;entryY=0.5;entryDx=0;entryDy=0;endArrow=none;startFill=0;strokeWidth=3;" parent="1" source="7WJoirEgyPjlSJRLRqlb-1" target="7WJoirEgyPjlSJRLRqlb-16" edge="1">
          <mxGeometry relative="1" as="geometry" />
        </mxCell>
        <mxCell id="7WJoirEgyPjlSJRLRqlb-1" value="دانشگاه" style="rounded=0;whiteSpace=wrap;html=1;" parent="1" vertex="1">
          <mxGeometry x="-330" y="210" width="60" height="30" as="geometry" />
        </mxCell>
        <mxCell id="7WJoirEgyPjlSJRLRqlb-135" style="edgeStyle=none;rounded=0;orthogonalLoop=1;jettySize=auto;html=1;exitX=0.5;exitY=1;exitDx=0;exitDy=0;entryX=0.5;entryY=0;entryDx=0;entryDy=0;endArrow=none;startFill=0;strokeWidth=3;" parent="1" source="7WJoirEgyPjlSJRLRqlb-12" target="7WJoirEgyPjlSJRLRqlb-131" edge="1">
          <mxGeometry relative="1" as="geometry" />
        </mxCell>
        <mxCell id="7WJoirEgyPjlSJRLRqlb-136" style="edgeStyle=none;rounded=0;orthogonalLoop=1;jettySize=auto;html=1;exitX=0.75;exitY=1;exitDx=0;exitDy=0;entryX=0.5;entryY=0;entryDx=0;entryDy=0;endArrow=none;startFill=0;strokeWidth=3;" parent="1" source="7WJoirEgyPjlSJRLRqlb-12" target="7WJoirEgyPjlSJRLRqlb-130" edge="1">
          <mxGeometry relative="1" as="geometry" />
        </mxCell>
        <mxCell id="7WJoirEgyPjlSJRLRqlb-143" style="edgeStyle=none;rounded=0;orthogonalLoop=1;jettySize=auto;html=1;exitX=1;exitY=0.5;exitDx=0;exitDy=0;entryX=1;entryY=0.5;entryDx=0;entryDy=0;endArrow=none;startFill=0;strokeWidth=3;" parent="1" source="7WJoirEgyPjlSJRLRqlb-12" target="7WJoirEgyPjlSJRLRqlb-43" edge="1">
          <mxGeometry relative="1" as="geometry">
            <Array as="points">
              <mxPoint x="730" y="173" />
              <mxPoint x="730" y="470" />
            </Array>
          </mxGeometry>
        </mxCell>
        <mxCell id="7WJoirEgyPjlSJRLRqlb-12" value="اساتید" style="rounded=0;whiteSpace=wrap;html=1;" parent="1" vertex="1">
          <mxGeometry x="540" y="158" width="60" height="30" as="geometry" />
        </mxCell>
        <mxCell id="7WJoirEgyPjlSJRLRqlb-47" style="edgeStyle=none;rounded=0;orthogonalLoop=1;jettySize=auto;html=1;exitX=1;exitY=0.5;exitDx=0;exitDy=0;entryX=0;entryY=0.5;entryDx=0;entryDy=0;endArrow=none;startFill=0;strokeWidth=3;" parent="1" source="7WJoirEgyPjlSJRLRqlb-13" target="7WJoirEgyPjlSJRLRqlb-18" edge="1">
          <mxGeometry relative="1" as="geometry" />
        </mxCell>
        <mxCell id="7WJoirEgyPjlSJRLRqlb-13" value="دانشکده" style="rounded=0;whiteSpace=wrap;html=1;" parent="1" vertex="1">
          <mxGeometry x="-220" y="155" width="60" height="30" as="geometry" />
        </mxCell>
        <mxCell id="7WJoirEgyPjlSJRLRqlb-49" style="edgeStyle=none;rounded=0;orthogonalLoop=1;jettySize=auto;html=1;exitX=0.5;exitY=1;exitDx=0;exitDy=0;entryX=0.5;entryY=0;entryDx=0;entryDy=0;endArrow=none;startFill=0;strokeWidth=3;" parent="1" source="7WJoirEgyPjlSJRLRqlb-14" target="7WJoirEgyPjlSJRLRqlb-20" edge="1">
          <mxGeometry relative="1" as="geometry" />
        </mxCell>
        <mxCell id="7WJoirEgyPjlSJRLRqlb-14" value="گروه" style="rounded=0;whiteSpace=wrap;html=1;" parent="1" vertex="1">
          <mxGeometry x="30" y="155" width="60" height="30" as="geometry" />
        </mxCell>
        <mxCell id="7WJoirEgyPjlSJRLRqlb-15" value="قسمت درس " style="rounded=0;whiteSpace=wrap;html=1;" parent="1" vertex="1">
          <mxGeometry x="-220" y="330" width="60" height="30" as="geometry" />
        </mxCell>
        <mxCell id="7WJoirEgyPjlSJRLRqlb-45" style="edgeStyle=none;rounded=0;orthogonalLoop=1;jettySize=auto;html=1;exitX=0.5;exitY=1;exitDx=0;exitDy=0;entryX=0.5;entryY=1;entryDx=0;entryDy=0;endArrow=none;startFill=0;" parent="1" source="7WJoirEgyPjlSJRLRqlb-16" target="7WJoirEgyPjlSJRLRqlb-13" edge="1">
          <mxGeometry relative="1" as="geometry" />
        </mxCell>
        <mxCell id="7WJoirEgyPjlSJRLRqlb-16" value="دارد" style="rhombus;whiteSpace=wrap;html=1;" parent="1" vertex="1">
          <mxGeometry x="-215" y="205" width="50" height="40" as="geometry" />
        </mxCell>
        <mxCell id="7WJoirEgyPjlSJRLRqlb-51" style="edgeStyle=none;rounded=0;orthogonalLoop=1;jettySize=auto;html=1;exitX=0;exitY=0.5;exitDx=0;exitDy=0;entryX=1;entryY=0.5;entryDx=0;entryDy=0;endArrow=none;startFill=0;strokeWidth=3;" parent="1" source="7WJoirEgyPjlSJRLRqlb-17" target="7WJoirEgyPjlSJRLRqlb-22" edge="1">
          <mxGeometry relative="1" as="geometry">
            <mxPoint x="-30" y="345" as="targetPoint" />
          </mxGeometry>
        </mxCell>
        <mxCell id="7WJoirEgyPjlSJRLRqlb-53" style="edgeStyle=none;rounded=0;orthogonalLoop=1;jettySize=auto;html=1;exitX=0.5;exitY=1;exitDx=0;exitDy=0;entryX=0.5;entryY=0;entryDx=0;entryDy=0;endArrow=none;startFill=0;strokeWidth=3;" parent="1" source="7WJoirEgyPjlSJRLRqlb-17" target="7WJoirEgyPjlSJRLRqlb-25" edge="1">
          <mxGeometry relative="1" as="geometry" />
        </mxCell>
        <mxCell id="7WJoirEgyPjlSJRLRqlb-17" value="درس" style="rounded=0;whiteSpace=wrap;html=1;" parent="1" vertex="1">
          <mxGeometry x="30" y="330" width="60" height="30" as="geometry" />
        </mxCell>
        <mxCell id="7WJoirEgyPjlSJRLRqlb-48" style="edgeStyle=none;rounded=0;orthogonalLoop=1;jettySize=auto;html=1;exitX=1;exitY=0.5;exitDx=0;exitDy=0;entryX=0;entryY=0.5;entryDx=0;entryDy=0;endArrow=none;startFill=0;strokeWidth=3;" parent="1" source="7WJoirEgyPjlSJRLRqlb-18" target="7WJoirEgyPjlSJRLRqlb-14" edge="1">
          <mxGeometry relative="1" as="geometry" />
        </mxCell>
        <mxCell id="7WJoirEgyPjlSJRLRqlb-18" value="شامل می شود" style="rhombus;whiteSpace=wrap;html=1;" parent="1" vertex="1">
          <mxGeometry x="-100" y="145" width="70" height="50" as="geometry" />
        </mxCell>
        <mxCell id="7WJoirEgyPjlSJRLRqlb-64" style="edgeStyle=none;rounded=0;orthogonalLoop=1;jettySize=auto;html=1;exitX=-0.093;exitY=0.704;exitDx=0;exitDy=0;entryX=1;entryY=0.5;entryDx=0;entryDy=0;endArrow=none;startFill=0;exitPerimeter=0;strokeWidth=3;" parent="1" source="7WJoirEgyPjlSJRLRqlb-123" target="7WJoirEgyPjlSJRLRqlb-41" edge="1">
          <mxGeometry relative="1" as="geometry">
            <Array as="points">
              <mxPoint x="302" y="245" />
            </Array>
          </mxGeometry>
        </mxCell>
        <mxCell id="7WJoirEgyPjlSJRLRqlb-68" style="edgeStyle=none;rounded=0;orthogonalLoop=1;jettySize=auto;html=1;exitX=0;exitY=0.5;exitDx=0;exitDy=0;entryX=1;entryY=0.5;entryDx=0;entryDy=0;endArrow=none;startFill=0;" parent="1" source="7WJoirEgyPjlSJRLRqlb-19" target="7WJoirEgyPjlSJRLRqlb-42" edge="1">
          <mxGeometry relative="1" as="geometry">
            <Array as="points">
              <mxPoint x="230" y="345" />
            </Array>
          </mxGeometry>
        </mxCell>
        <mxCell id="7WJoirEgyPjlSJRLRqlb-118" value="" style="edgeStyle=none;rounded=0;orthogonalLoop=1;jettySize=auto;html=1;endArrow=none;startFill=0;strokeWidth=3;" parent="1" source="7WJoirEgyPjlSJRLRqlb-19" target="7WJoirEgyPjlSJRLRqlb-42" edge="1">
          <mxGeometry relative="1" as="geometry" />
        </mxCell>
        <mxCell id="7WJoirEgyPjlSJRLRqlb-19" value="دانشجو" style="rounded=0;whiteSpace=wrap;html=1;" parent="1" vertex="1">
          <mxGeometry x="275" y="330" width="60" height="30" as="geometry" />
        </mxCell>
        <mxCell id="7WJoirEgyPjlSJRLRqlb-50" style="edgeStyle=none;rounded=0;orthogonalLoop=1;jettySize=auto;html=1;exitX=0.5;exitY=1;exitDx=0;exitDy=0;entryX=0.5;entryY=0;entryDx=0;entryDy=0;endArrow=none;startFill=0;strokeWidth=3;" parent="1" source="7WJoirEgyPjlSJRLRqlb-20" target="7WJoirEgyPjlSJRLRqlb-17" edge="1">
          <mxGeometry relative="1" as="geometry" />
        </mxCell>
        <mxCell id="7WJoirEgyPjlSJRLRqlb-20" value="ارائه می دهد" style="rhombus;whiteSpace=wrap;html=1;" parent="1" vertex="1">
          <mxGeometry x="30" y="240" width="60" height="40" as="geometry" />
        </mxCell>
        <mxCell id="JW2hQLIgeUgNGmDU9fiR-68" style="edgeStyle=none;rounded=0;orthogonalLoop=1;jettySize=auto;html=1;exitX=0.5;exitY=1;exitDx=0;exitDy=0;entryX=0.5;entryY=0;entryDx=0;entryDy=0;endArrow=none;startFill=0;strokeWidth=3;" edge="1" parent="1" source="7WJoirEgyPjlSJRLRqlb-21" target="JW2hQLIgeUgNGmDU9fiR-10">
          <mxGeometry relative="1" as="geometry" />
        </mxCell>
        <mxCell id="JW2hQLIgeUgNGmDU9fiR-69" style="edgeStyle=none;rounded=0;orthogonalLoop=1;jettySize=auto;html=1;exitX=0.75;exitY=1;exitDx=0;exitDy=0;entryX=0.5;entryY=0;entryDx=0;entryDy=0;endArrow=none;startFill=0;strokeWidth=3;" edge="1" parent="1" source="7WJoirEgyPjlSJRLRqlb-21" target="JW2hQLIgeUgNGmDU9fiR-9">
          <mxGeometry relative="1" as="geometry" />
        </mxCell>
        <mxCell id="7WJoirEgyPjlSJRLRqlb-21" value="ترم" style="rounded=0;whiteSpace=wrap;html=1;" parent="1" vertex="1">
          <mxGeometry x="30" y="460" width="60" height="30" as="geometry" />
        </mxCell>
        <mxCell id="7WJoirEgyPjlSJRLRqlb-52" style="edgeStyle=none;rounded=0;orthogonalLoop=1;jettySize=auto;html=1;exitX=0;exitY=0.5;exitDx=0;exitDy=0;entryX=1;entryY=0.5;entryDx=0;entryDy=0;endArrow=none;startFill=0;strokeWidth=3;" parent="1" source="7WJoirEgyPjlSJRLRqlb-22" target="7WJoirEgyPjlSJRLRqlb-15" edge="1">
          <mxGeometry relative="1" as="geometry" />
        </mxCell>
        <mxCell id="7WJoirEgyPjlSJRLRqlb-22" value="تشکیل" style="rhombus;whiteSpace=wrap;html=1;" parent="1" vertex="1">
          <mxGeometry x="-95" y="325" width="60" height="40" as="geometry" />
        </mxCell>
        <mxCell id="7WJoirEgyPjlSJRLRqlb-54" style="edgeStyle=none;rounded=0;orthogonalLoop=1;jettySize=auto;html=1;exitX=0.5;exitY=1;exitDx=0;exitDy=0;entryX=0.5;entryY=0;entryDx=0;entryDy=0;endArrow=none;startFill=0;strokeWidth=3;" parent="1" source="7WJoirEgyPjlSJRLRqlb-25" target="7WJoirEgyPjlSJRLRqlb-21" edge="1">
          <mxGeometry relative="1" as="geometry" />
        </mxCell>
        <mxCell id="7WJoirEgyPjlSJRLRqlb-25" value="ارائه می شود" style="rhombus;whiteSpace=wrap;html=1;" parent="1" vertex="1">
          <mxGeometry x="30" y="390" width="60" height="40" as="geometry" />
        </mxCell>
        <mxCell id="7WJoirEgyPjlSJRLRqlb-66" style="edgeStyle=none;rounded=0;orthogonalLoop=1;jettySize=auto;html=1;exitX=0;exitY=0.5;exitDx=0;exitDy=0;entryX=1;entryY=0.5;entryDx=0;entryDy=0;endArrow=none;startFill=0;strokeWidth=3;" parent="1" source="7WJoirEgyPjlSJRLRqlb-12" target="7WJoirEgyPjlSJRLRqlb-34" edge="1">
          <mxGeometry relative="1" as="geometry">
            <Array as="points" />
          </mxGeometry>
        </mxCell>
        <mxCell id="7WJoirEgyPjlSJRLRqlb-34" value="عضو" style="rhombus;whiteSpace=wrap;html=1;" parent="1" vertex="1">
          <mxGeometry x="160" y="147.5" width="50" height="45" as="geometry" />
        </mxCell>
        <mxCell id="7WJoirEgyPjlSJRLRqlb-110" style="edgeStyle=none;rounded=0;orthogonalLoop=1;jettySize=auto;html=1;entryX=1;entryY=0.5;entryDx=0;entryDy=0;exitX=0;exitY=0.5;exitDx=0;exitDy=0;endArrow=none;startFill=0;strokeWidth=3;" parent="1" source="7WJoirEgyPjlSJRLRqlb-38" target="7WJoirEgyPjlSJRLRqlb-19" edge="1">
          <mxGeometry relative="1" as="geometry">
            <mxPoint x="260" y="230" as="targetPoint" />
            <mxPoint x="370" y="350" as="sourcePoint" />
            <Array as="points">
              <mxPoint x="380" y="345" />
            </Array>
          </mxGeometry>
        </mxCell>
        <mxCell id="7WJoirEgyPjlSJRLRqlb-141" style="edgeStyle=none;rounded=0;orthogonalLoop=1;jettySize=auto;html=1;exitX=0.5;exitY=0;exitDx=0;exitDy=0;entryX=0.5;entryY=1;entryDx=0;entryDy=0;endArrow=none;startFill=0;strokeWidth=3;" parent="1" source="7WJoirEgyPjlSJRLRqlb-38" target="7WJoirEgyPjlSJRLRqlb-129" edge="1">
          <mxGeometry relative="1" as="geometry" />
        </mxCell>
        <mxCell id="7WJoirEgyPjlSJRLRqlb-38" value="راهنمایی" style="rhombus;whiteSpace=wrap;html=1;" parent="1" vertex="1">
          <mxGeometry x="420" y="325" width="60" height="40" as="geometry" />
        </mxCell>
        <mxCell id="7WJoirEgyPjlSJRLRqlb-147" style="edgeStyle=none;rounded=0;orthogonalLoop=1;jettySize=auto;html=1;exitX=0;exitY=0.5;exitDx=0;exitDy=0;entryX=0.75;entryY=1;entryDx=0;entryDy=0;endArrow=none;startFill=0;strokeWidth=3;" parent="1" source="7WJoirEgyPjlSJRLRqlb-41" target="7WJoirEgyPjlSJRLRqlb-14" edge="1">
          <mxGeometry relative="1" as="geometry">
            <Array as="points">
              <mxPoint x="160" y="245" />
              <mxPoint x="160" y="220" />
              <mxPoint x="75" y="220" />
            </Array>
          </mxGeometry>
        </mxCell>
        <mxCell id="7WJoirEgyPjlSJRLRqlb-41" value="تعلق دارد" style="rhombus;whiteSpace=wrap;html=1;" parent="1" vertex="1">
          <mxGeometry x="185" y="225" width="60" height="40" as="geometry" />
        </mxCell>
        <mxCell id="7WJoirEgyPjlSJRLRqlb-69" style="edgeStyle=none;rounded=0;orthogonalLoop=1;jettySize=auto;html=1;exitX=0;exitY=0.5;exitDx=0;exitDy=0;entryX=1;entryY=0.5;entryDx=0;entryDy=0;endArrow=none;startFill=0;strokeWidth=3;" parent="1" source="7WJoirEgyPjlSJRLRqlb-42" target="7WJoirEgyPjlSJRLRqlb-17" edge="1">
          <mxGeometry relative="1" as="geometry" />
        </mxCell>
        <mxCell id="7WJoirEgyPjlSJRLRqlb-42" value="ثبت نام" style="rhombus;whiteSpace=wrap;html=1;" parent="1" vertex="1">
          <mxGeometry x="140" y="325" width="60" height="40" as="geometry" />
        </mxCell>
        <mxCell id="7WJoirEgyPjlSJRLRqlb-76" style="edgeStyle=none;rounded=0;orthogonalLoop=1;jettySize=auto;html=1;exitX=0;exitY=0.5;exitDx=0;exitDy=0;startArrow=none;startFill=0;endArrow=none;entryX=0.75;entryY=1;entryDx=0;entryDy=0;strokeWidth=3;" parent="1" source="7WJoirEgyPjlSJRLRqlb-43" target="7WJoirEgyPjlSJRLRqlb-17" edge="1">
          <mxGeometry relative="1" as="geometry">
            <mxPoint x="90" y="370" as="targetPoint" />
            <Array as="points">
              <mxPoint x="110" y="470" />
              <mxPoint x="110" y="380" />
              <mxPoint x="75" y="380" />
            </Array>
          </mxGeometry>
        </mxCell>
        <mxCell id="7WJoirEgyPjlSJRLRqlb-117" value="&lt;div&gt;4&lt;/div&gt;&lt;div&gt;&lt;br&gt;&lt;/div&gt;" style="edgeLabel;html=1;align=center;verticalAlign=middle;resizable=0;points=[];" parent="7WJoirEgyPjlSJRLRqlb-76" vertex="1" connectable="0">
          <mxGeometry x="0.6706" y="-5" relative="1" as="geometry">
            <mxPoint as="offset" />
          </mxGeometry>
        </mxCell>
        <mxCell id="7WJoirEgyPjlSJRLRqlb-43" value="تدریس" style="rhombus;whiteSpace=wrap;html=1;" parent="1" vertex="1">
          <mxGeometry x="140" y="450" width="60" height="40" as="geometry" />
        </mxCell>
        <mxCell id="7WJoirEgyPjlSJRLRqlb-63" style="edgeStyle=none;rounded=0;orthogonalLoop=1;jettySize=auto;html=1;entryX=0.5;entryY=0;entryDx=0;entryDy=0;" parent="1" source="7WJoirEgyPjlSJRLRqlb-19" target="7WJoirEgyPjlSJRLRqlb-19" edge="1">
          <mxGeometry relative="1" as="geometry" />
        </mxCell>
        <mxCell id="7WJoirEgyPjlSJRLRqlb-73" style="edgeStyle=none;rounded=0;orthogonalLoop=1;jettySize=auto;html=1;exitX=0.5;exitY=1;exitDx=0;exitDy=0;" parent="1" source="7WJoirEgyPjlSJRLRqlb-1" target="7WJoirEgyPjlSJRLRqlb-1" edge="1">
          <mxGeometry relative="1" as="geometry" />
        </mxCell>
        <mxCell id="7WJoirEgyPjlSJRLRqlb-80" value="1" style="text;html=1;align=center;verticalAlign=middle;resizable=0;points=[];autosize=1;strokeColor=none;fillColor=none;" parent="1" vertex="1">
          <mxGeometry x="-165" y="148" width="30" height="30" as="geometry" />
        </mxCell>
        <mxCell id="7WJoirEgyPjlSJRLRqlb-81" value="N" style="text;html=1;align=center;verticalAlign=middle;resizable=0;points=[];autosize=1;strokeColor=none;fillColor=none;" parent="1" vertex="1">
          <mxGeometry x="-5" y="138" width="30" height="30" as="geometry" />
        </mxCell>
        <mxCell id="7WJoirEgyPjlSJRLRqlb-84" value="1" style="text;html=1;align=center;verticalAlign=middle;resizable=0;points=[];autosize=1;strokeColor=none;fillColor=none;" parent="1" vertex="1">
          <mxGeometry x="90" y="138" width="30" height="30" as="geometry" />
        </mxCell>
        <mxCell id="7WJoirEgyPjlSJRLRqlb-89" style="edgeStyle=none;rounded=0;orthogonalLoop=1;jettySize=auto;html=1;exitX=0;exitY=0.5;exitDx=0;exitDy=0;entryX=0;entryY=0.5;entryDx=0;entryDy=0;endArrow=none;startFill=0;strokeWidth=3;" parent="1" source="7WJoirEgyPjlSJRLRqlb-87" target="7WJoirEgyPjlSJRLRqlb-13" edge="1">
          <mxGeometry relative="1" as="geometry">
            <Array as="points">
              <mxPoint x="-270" y="63" />
              <mxPoint x="-270" y="170" />
            </Array>
          </mxGeometry>
        </mxCell>
        <mxCell id="7WJoirEgyPjlSJRLRqlb-87" value="رییس" style="rhombus;whiteSpace=wrap;html=1;" parent="1" vertex="1">
          <mxGeometry x="355" y="40" width="50" height="45" as="geometry" />
        </mxCell>
        <mxCell id="7WJoirEgyPjlSJRLRqlb-93" value="1" style="text;html=1;align=center;verticalAlign=middle;resizable=0;points=[];autosize=1;strokeColor=none;fillColor=none;" parent="1" vertex="1">
          <mxGeometry x="-255" y="138" width="30" height="30" as="geometry" />
        </mxCell>
        <mxCell id="7WJoirEgyPjlSJRLRqlb-97" style="edgeStyle=none;rounded=0;orthogonalLoop=1;jettySize=auto;html=1;exitX=0;exitY=0.5;exitDx=0;exitDy=0;entryX=0.75;entryY=0;entryDx=0;entryDy=0;endArrow=none;startFill=0;strokeWidth=3;" parent="1" source="7WJoirEgyPjlSJRLRqlb-95" target="7WJoirEgyPjlSJRLRqlb-14" edge="1">
          <mxGeometry relative="1" as="geometry">
            <Array as="points">
              <mxPoint x="410" y="93" />
              <mxPoint x="75" y="93" />
            </Array>
          </mxGeometry>
        </mxCell>
        <mxCell id="7WJoirEgyPjlSJRLRqlb-95" value="مدیر" style="rhombus;whiteSpace=wrap;html=1;" parent="1" vertex="1">
          <mxGeometry x="470" y="70.5" width="50" height="45" as="geometry" />
        </mxCell>
        <mxCell id="7WJoirEgyPjlSJRLRqlb-100" value="1" style="text;html=1;align=center;verticalAlign=middle;resizable=0;points=[];autosize=1;strokeColor=none;fillColor=none;" parent="1" vertex="1">
          <mxGeometry x="65" y="128" width="30" height="30" as="geometry" />
        </mxCell>
        <mxCell id="7WJoirEgyPjlSJRLRqlb-102" value="N" style="text;html=1;align=center;verticalAlign=middle;resizable=0;points=[];autosize=1;strokeColor=none;fillColor=none;" parent="1" vertex="1">
          <mxGeometry x="55" y="308" width="30" height="30" as="geometry" />
        </mxCell>
        <mxCell id="7WJoirEgyPjlSJRLRqlb-103" value="1" style="text;html=1;align=center;verticalAlign=middle;resizable=0;points=[];autosize=1;strokeColor=none;fillColor=none;" parent="1" vertex="1">
          <mxGeometry x="5" y="318" width="30" height="30" as="geometry" />
        </mxCell>
        <mxCell id="7WJoirEgyPjlSJRLRqlb-104" value="N" style="text;html=1;align=center;verticalAlign=middle;resizable=0;points=[];autosize=1;strokeColor=none;fillColor=none;" parent="1" vertex="1">
          <mxGeometry x="-165" y="318" width="30" height="30" as="geometry" />
        </mxCell>
        <mxCell id="7WJoirEgyPjlSJRLRqlb-106" value="6" style="text;html=1;align=center;verticalAlign=middle;resizable=0;points=[];autosize=1;strokeColor=none;fillColor=none;" parent="1" vertex="1">
          <mxGeometry x="85" y="318" width="30" height="30" as="geometry" />
        </mxCell>
        <mxCell id="7WJoirEgyPjlSJRLRqlb-107" value="0" style="text;html=1;align=center;verticalAlign=middle;resizable=0;points=[];autosize=1;strokeColor=none;fillColor=none;" parent="1" vertex="1">
          <mxGeometry x="85" y="338" width="30" height="30" as="geometry" />
        </mxCell>
        <mxCell id="7WJoirEgyPjlSJRLRqlb-115" value="1" style="text;html=1;align=center;verticalAlign=middle;resizable=0;points=[];autosize=1;strokeColor=none;fillColor=none;" parent="1" vertex="1">
          <mxGeometry x="35" y="178" width="30" height="30" as="geometry" />
        </mxCell>
        <mxCell id="7WJoirEgyPjlSJRLRqlb-119" value="1" style="text;html=1;align=center;verticalAlign=middle;resizable=0;points=[];autosize=1;strokeColor=none;fillColor=none;" parent="1" vertex="1">
          <mxGeometry x="245" y="318" width="30" height="30" as="geometry" />
        </mxCell>
        <mxCell id="7WJoirEgyPjlSJRLRqlb-121" value="35" style="text;html=1;align=center;verticalAlign=middle;resizable=0;points=[];autosize=1;strokeColor=none;fillColor=none;" parent="1" vertex="1">
          <mxGeometry x="250" y="348" width="40" height="30" as="geometry" />
        </mxCell>
        <mxCell id="7WJoirEgyPjlSJRLRqlb-122" value="1" style="text;html=1;align=center;verticalAlign=middle;resizable=0;points=[];autosize=1;strokeColor=none;fillColor=none;" parent="1" vertex="1">
          <mxGeometry x="75" y="178" width="30" height="30" as="geometry" />
        </mxCell>
        <mxCell id="7WJoirEgyPjlSJRLRqlb-123" value="N" style="text;html=1;align=center;verticalAlign=middle;resizable=0;points=[];autosize=1;strokeColor=none;fillColor=none;" parent="1" vertex="1">
          <mxGeometry x="305" y="308" width="30" height="30" as="geometry" />
        </mxCell>
        <mxCell id="7WJoirEgyPjlSJRLRqlb-127" value="&lt;span style=&quot;white-space: pre;&quot;&gt;&#x9;&lt;/span&gt;N" style="text;html=1;align=center;verticalAlign=middle;resizable=0;points=[];autosize=1;strokeColor=none;fillColor=none;" parent="1" vertex="1">
          <mxGeometry x="320" y="318" width="60" height="30" as="geometry" />
        </mxCell>
        <mxCell id="7WJoirEgyPjlSJRLRqlb-137" style="edgeStyle=none;rounded=0;orthogonalLoop=1;jettySize=auto;html=1;exitX=1;exitY=0.5;exitDx=0;exitDy=0;entryX=0;entryY=0.5;entryDx=0;entryDy=0;endArrow=none;startFill=0;strokeWidth=3;" parent="1" source="7WJoirEgyPjlSJRLRqlb-129" target="7WJoirEgyPjlSJRLRqlb-131" edge="1">
          <mxGeometry relative="1" as="geometry" />
        </mxCell>
        <mxCell id="7WJoirEgyPjlSJRLRqlb-160" value="GS" style="edgeLabel;html=1;align=center;verticalAlign=middle;resizable=0;points=[];" parent="7WJoirEgyPjlSJRLRqlb-137" vertex="1" connectable="0">
          <mxGeometry y="-1" relative="1" as="geometry">
            <mxPoint as="offset" />
          </mxGeometry>
        </mxCell>
        <mxCell id="JW2hQLIgeUgNGmDU9fiR-70" style="edgeStyle=none;rounded=0;orthogonalLoop=1;jettySize=auto;html=1;exitX=0.5;exitY=0;exitDx=0;exitDy=0;endArrow=none;startFill=0;strokeWidth=3;" edge="1" parent="1" source="7WJoirEgyPjlSJRLRqlb-129">
          <mxGeometry relative="1" as="geometry">
            <mxPoint x="550" y="190" as="targetPoint" />
          </mxGeometry>
        </mxCell>
        <mxCell id="7WJoirEgyPjlSJRLRqlb-129" value="استاد راهنما" style="rounded=0;whiteSpace=wrap;html=1;" parent="1" vertex="1">
          <mxGeometry x="420" y="230" width="60" height="30" as="geometry" />
        </mxCell>
        <mxCell id="7WJoirEgyPjlSJRLRqlb-130" value="مدیر گروه" style="rounded=0;whiteSpace=wrap;html=1;" parent="1" vertex="1">
          <mxGeometry x="650" y="230" width="60" height="30" as="geometry" />
        </mxCell>
        <mxCell id="7WJoirEgyPjlSJRLRqlb-138" style="edgeStyle=none;rounded=0;orthogonalLoop=1;jettySize=auto;html=1;exitX=1;exitY=0.5;exitDx=0;exitDy=0;endArrow=none;startFill=0;strokeWidth=3;" parent="1" source="7WJoirEgyPjlSJRLRqlb-131" target="7WJoirEgyPjlSJRLRqlb-130" edge="1">
          <mxGeometry relative="1" as="geometry" />
        </mxCell>
        <mxCell id="7WJoirEgyPjlSJRLRqlb-161" value="GS" style="edgeLabel;html=1;align=center;verticalAlign=middle;resizable=0;points=[];" parent="7WJoirEgyPjlSJRLRqlb-138" vertex="1" connectable="0">
          <mxGeometry relative="1" as="geometry">
            <mxPoint as="offset" />
          </mxGeometry>
        </mxCell>
        <mxCell id="7WJoirEgyPjlSJRLRqlb-139" style="edgeStyle=none;rounded=0;orthogonalLoop=1;jettySize=auto;html=1;exitX=0.5;exitY=1;exitDx=0;exitDy=0;entryX=1;entryY=0.5;entryDx=0;entryDy=0;endArrow=none;startFill=0;strokeWidth=3;" parent="1" source="7WJoirEgyPjlSJRLRqlb-130" target="7WJoirEgyPjlSJRLRqlb-95" edge="1">
          <mxGeometry relative="1" as="geometry">
            <Array as="points">
              <mxPoint x="680" y="290" />
              <mxPoint x="770" y="290" />
              <mxPoint x="770" y="93" />
            </Array>
          </mxGeometry>
        </mxCell>
        <mxCell id="7WJoirEgyPjlSJRLRqlb-140" style="edgeStyle=none;rounded=0;orthogonalLoop=1;jettySize=auto;html=1;exitX=0.5;exitY=1;exitDx=0;exitDy=0;entryX=1;entryY=0.5;entryDx=0;entryDy=0;endArrow=none;startFill=0;endSize=11;strokeWidth=3;" parent="1" source="7WJoirEgyPjlSJRLRqlb-131" target="7WJoirEgyPjlSJRLRqlb-87" edge="1">
          <mxGeometry relative="1" as="geometry">
            <Array as="points">
              <mxPoint x="570" y="320" />
              <mxPoint x="810" y="320" />
              <mxPoint x="810" y="63" />
            </Array>
          </mxGeometry>
        </mxCell>
        <mxCell id="7WJoirEgyPjlSJRLRqlb-131" value="رییس دانشکده" style="rounded=0;whiteSpace=wrap;html=1;" parent="1" vertex="1">
          <mxGeometry x="540" y="230" width="60" height="30" as="geometry" />
        </mxCell>
        <mxCell id="7WJoirEgyPjlSJRLRqlb-148" value="N" style="text;html=1;align=center;verticalAlign=middle;resizable=0;points=[];autosize=1;strokeColor=none;fillColor=none;" parent="1" vertex="1">
          <mxGeometry x="35" y="348" width="30" height="30" as="geometry" />
        </mxCell>
        <mxCell id="7WJoirEgyPjlSJRLRqlb-150" value="M" style="text;html=1;align=center;verticalAlign=middle;resizable=0;points=[];autosize=1;strokeColor=none;fillColor=none;" parent="1" vertex="1">
          <mxGeometry x="35" y="438" width="30" height="30" as="geometry" />
        </mxCell>
        <mxCell id="JW2hQLIgeUgNGmDU9fiR-74" value="" style="edgeStyle=none;rounded=0;orthogonalLoop=1;jettySize=auto;html=1;strokeWidth=3;" edge="1" parent="1" target="7WJoirEgyPjlSJRLRqlb-180">
          <mxGeometry relative="1" as="geometry">
            <mxPoint x="570" y="160" as="sourcePoint" />
          </mxGeometry>
        </mxCell>
        <mxCell id="7WJoirEgyPjlSJRLRqlb-151" value="(0..4)" style="text;html=1;align=center;verticalAlign=middle;resizable=0;points=[];autosize=1;strokeColor=none;fillColor=none;" parent="1" vertex="1">
          <mxGeometry x="595" y="147.5" width="50" height="30" as="geometry" />
        </mxCell>
        <mxCell id="7WJoirEgyPjlSJRLRqlb-152" value="1" style="text;html=1;align=center;verticalAlign=middle;resizable=0;points=[];autosize=1;strokeColor=none;fillColor=none;" parent="1" vertex="1">
          <mxGeometry x="565" y="258" width="30" height="30" as="geometry" />
        </mxCell>
        <mxCell id="7WJoirEgyPjlSJRLRqlb-153" value="1" style="text;html=1;align=center;verticalAlign=middle;resizable=0;points=[];autosize=1;strokeColor=none;fillColor=none;" parent="1" vertex="1">
          <mxGeometry x="675" y="248" width="30" height="30" as="geometry" />
        </mxCell>
        <mxCell id="7WJoirEgyPjlSJRLRqlb-156" value="1" style="text;html=1;align=center;verticalAlign=middle;resizable=0;points=[];autosize=1;strokeColor=none;fillColor=none;" parent="1" vertex="1">
          <mxGeometry x="-275" y="198" width="30" height="30" as="geometry" />
        </mxCell>
        <mxCell id="7WJoirEgyPjlSJRLRqlb-157" value="1" style="text;html=1;align=center;verticalAlign=middle;resizable=0;points=[];autosize=1;strokeColor=none;fillColor=none;" parent="1" vertex="1">
          <mxGeometry x="-215" y="178" width="30" height="30" as="geometry" />
        </mxCell>
        <mxCell id="7WJoirEgyPjlSJRLRqlb-158" style="edgeStyle=none;rounded=0;orthogonalLoop=1;jettySize=auto;html=1;exitX=0;exitY=0.5;exitDx=0;exitDy=0;entryX=-0.019;entryY=1.063;entryDx=0;entryDy=0;entryPerimeter=0;endArrow=none;startFill=0;strokeWidth=3;" parent="1" source="7WJoirEgyPjlSJRLRqlb-34" target="7WJoirEgyPjlSJRLRqlb-84" edge="1">
          <mxGeometry relative="1" as="geometry" />
        </mxCell>
        <mxCell id="7WJoirEgyPjlSJRLRqlb-159" value="N" style="text;html=1;align=center;verticalAlign=middle;resizable=0;points=[];autosize=1;strokeColor=none;fillColor=none;" parent="1" vertex="1">
          <mxGeometry x="505" y="148" width="30" height="30" as="geometry" />
        </mxCell>
        <mxCell id="JW2hQLIgeUgNGmDU9fiR-63" style="edgeStyle=none;rounded=0;orthogonalLoop=1;jettySize=auto;html=1;exitX=1;exitY=0.5;exitDx=0;exitDy=0;endArrow=none;startFill=0;strokeWidth=3;" edge="1" parent="1" source="7WJoirEgyPjlSJRLRqlb-163">
          <mxGeometry relative="1" as="geometry">
            <mxPoint x="-330" y="220" as="targetPoint" />
          </mxGeometry>
        </mxCell>
        <mxCell id="7WJoirEgyPjlSJRLRqlb-163" value="کد دانشگاه" style="ellipse;whiteSpace=wrap;html=1;" parent="1" vertex="1">
          <mxGeometry x="-420" y="225" width="50" height="37" as="geometry" />
        </mxCell>
        <mxCell id="JW2hQLIgeUgNGmDU9fiR-62" style="edgeStyle=none;rounded=0;orthogonalLoop=1;jettySize=auto;html=1;exitX=1;exitY=0.5;exitDx=0;exitDy=0;entryX=0;entryY=0.5;entryDx=0;entryDy=0;endArrow=none;startFill=0;strokeWidth=3;" edge="1" parent="1" source="7WJoirEgyPjlSJRLRqlb-165" target="7WJoirEgyPjlSJRLRqlb-1">
          <mxGeometry relative="1" as="geometry" />
        </mxCell>
        <mxCell id="7WJoirEgyPjlSJRLRqlb-165" value="نام دانشگاه" style="ellipse;whiteSpace=wrap;html=1;" parent="1" vertex="1">
          <mxGeometry x="-420" y="188" width="50" height="37" as="geometry" />
        </mxCell>
        <mxCell id="JW2hQLIgeUgNGmDU9fiR-79" style="edgeStyle=none;rounded=0;orthogonalLoop=1;jettySize=auto;html=1;exitX=0.5;exitY=1;exitDx=0;exitDy=0;strokeWidth=3;endArrow=none;startFill=0;" edge="1" parent="1" source="7WJoirEgyPjlSJRLRqlb-166" target="7WJoirEgyPjlSJRLRqlb-13">
          <mxGeometry relative="1" as="geometry" />
        </mxCell>
        <mxCell id="7WJoirEgyPjlSJRLRqlb-166" value="کد دانشکده" style="ellipse;whiteSpace=wrap;html=1;" parent="1" vertex="1">
          <mxGeometry x="-255" y="74.5" width="50" height="37" as="geometry" />
        </mxCell>
        <mxCell id="JW2hQLIgeUgNGmDU9fiR-81" style="edgeStyle=none;rounded=0;orthogonalLoop=1;jettySize=auto;html=1;exitX=0.5;exitY=1;exitDx=0;exitDy=0;entryX=0.75;entryY=0;entryDx=0;entryDy=0;strokeWidth=3;endArrow=none;startFill=0;" edge="1" parent="1" source="7WJoirEgyPjlSJRLRqlb-167" target="7WJoirEgyPjlSJRLRqlb-13">
          <mxGeometry relative="1" as="geometry" />
        </mxCell>
        <mxCell id="7WJoirEgyPjlSJRLRqlb-167" value="شماره تماس" style="ellipse;whiteSpace=wrap;html=1;" parent="1" vertex="1">
          <mxGeometry x="-155" y="73" width="50" height="37" as="geometry" />
        </mxCell>
        <mxCell id="JW2hQLIgeUgNGmDU9fiR-80" style="edgeStyle=none;rounded=0;orthogonalLoop=1;jettySize=auto;html=1;exitX=0.5;exitY=1;exitDx=0;exitDy=0;entryX=0.5;entryY=0;entryDx=0;entryDy=0;strokeWidth=3;endArrow=none;startFill=0;" edge="1" parent="1" source="7WJoirEgyPjlSJRLRqlb-168" target="7WJoirEgyPjlSJRLRqlb-13">
          <mxGeometry relative="1" as="geometry" />
        </mxCell>
        <mxCell id="7WJoirEgyPjlSJRLRqlb-168" value="نام دانشکده" style="ellipse;whiteSpace=wrap;html=1;" parent="1" vertex="1">
          <mxGeometry x="-205" y="74.5" width="50" height="37" as="geometry" />
        </mxCell>
        <mxCell id="JW2hQLIgeUgNGmDU9fiR-82" style="edgeStyle=none;rounded=0;orthogonalLoop=1;jettySize=auto;html=1;exitX=0.5;exitY=1;exitDx=0;exitDy=0;strokeWidth=3;endArrow=none;startFill=0;" edge="1" parent="1" source="7WJoirEgyPjlSJRLRqlb-169">
          <mxGeometry relative="1" as="geometry">
            <mxPoint x="40" y="150" as="targetPoint" />
          </mxGeometry>
        </mxCell>
        <mxCell id="7WJoirEgyPjlSJRLRqlb-169" value="کدگروه" style="ellipse;whiteSpace=wrap;html=1;" parent="1" vertex="1">
          <mxGeometry x="-95" y="74.5" width="50" height="37" as="geometry" />
        </mxCell>
        <mxCell id="JW2hQLIgeUgNGmDU9fiR-54" style="edgeStyle=none;rounded=0;orthogonalLoop=1;jettySize=auto;html=1;exitX=0.5;exitY=0;exitDx=0;exitDy=0;endArrow=none;startFill=0;strokeWidth=3;" edge="1" parent="1" source="7WJoirEgyPjlSJRLRqlb-170">
          <mxGeometry relative="1" as="geometry">
            <mxPoint x="30" y="180" as="targetPoint" />
          </mxGeometry>
        </mxCell>
        <mxCell id="7WJoirEgyPjlSJRLRqlb-170" value="کد گروه" style="ellipse;whiteSpace=wrap;html=1;" parent="1" vertex="1">
          <mxGeometry x="-130" y="248" width="50" height="37" as="geometry" />
        </mxCell>
        <mxCell id="JW2hQLIgeUgNGmDU9fiR-49" style="edgeStyle=none;rounded=0;orthogonalLoop=1;jettySize=auto;html=1;exitX=0.5;exitY=0;exitDx=0;exitDy=0;entryX=0.75;entryY=1;entryDx=0;entryDy=0;endArrow=none;startFill=0;strokeWidth=3;" edge="1" parent="1" source="7WJoirEgyPjlSJRLRqlb-171" target="7WJoirEgyPjlSJRLRqlb-19">
          <mxGeometry relative="1" as="geometry" />
        </mxCell>
        <mxCell id="7WJoirEgyPjlSJRLRqlb-171" value="کد درس" style="ellipse;whiteSpace=wrap;html=1;" parent="1" vertex="1">
          <mxGeometry x="390" y="402" width="50" height="37" as="geometry" />
        </mxCell>
        <mxCell id="JW2hQLIgeUgNGmDU9fiR-37" style="edgeStyle=none;rounded=0;orthogonalLoop=1;jettySize=auto;html=1;exitX=0.5;exitY=1;exitDx=0;exitDy=0;entryX=0.25;entryY=0;entryDx=0;entryDy=0;endArrow=none;startFill=0;strokeWidth=3;" edge="1" parent="1" source="7WJoirEgyPjlSJRLRqlb-173" target="7WJoirEgyPjlSJRLRqlb-12">
          <mxGeometry relative="1" as="geometry" />
        </mxCell>
        <mxCell id="7WJoirEgyPjlSJRLRqlb-173" value="کد استاد" style="ellipse;whiteSpace=wrap;html=1;" parent="1" vertex="1">
          <mxGeometry x="510" y="101" width="50" height="37" as="geometry" />
        </mxCell>
        <mxCell id="JW2hQLIgeUgNGmDU9fiR-83" style="edgeStyle=none;rounded=0;orthogonalLoop=1;jettySize=auto;html=1;exitX=0.5;exitY=1;exitDx=0;exitDy=0;strokeWidth=3;endArrow=none;startFill=0;" edge="1" parent="1" source="7WJoirEgyPjlSJRLRqlb-174">
          <mxGeometry relative="1" as="geometry">
            <mxPoint x="40" y="150" as="targetPoint" />
          </mxGeometry>
        </mxCell>
        <mxCell id="7WJoirEgyPjlSJRLRqlb-174" value="نام گروه" style="ellipse;whiteSpace=wrap;html=1;" parent="1" vertex="1">
          <mxGeometry x="-45" y="76" width="50" height="34" as="geometry" />
        </mxCell>
        <mxCell id="JW2hQLIgeUgNGmDU9fiR-84" style="edgeStyle=none;rounded=0;orthogonalLoop=1;jettySize=auto;html=1;exitX=0.5;exitY=1;exitDx=0;exitDy=0;strokeWidth=3;endArrow=none;startFill=0;" edge="1" parent="1" source="7WJoirEgyPjlSJRLRqlb-175">
          <mxGeometry relative="1" as="geometry">
            <mxPoint x="40" y="150" as="targetPoint" />
          </mxGeometry>
        </mxCell>
        <mxCell id="7WJoirEgyPjlSJRLRqlb-175" value="کد دانشکده" style="ellipse;whiteSpace=wrap;html=1;" parent="1" vertex="1">
          <mxGeometry x="5" y="74.5" width="50" height="34" as="geometry" />
        </mxCell>
        <mxCell id="7WJoirEgyPjlSJRLRqlb-177" value="نام" style="ellipse;whiteSpace=wrap;html=1;" parent="1" vertex="1">
          <mxGeometry x="560" y="101" width="50" height="37" as="geometry" />
        </mxCell>
        <mxCell id="JW2hQLIgeUgNGmDU9fiR-41" style="edgeStyle=none;rounded=0;orthogonalLoop=1;jettySize=auto;html=1;exitX=0.5;exitY=1;exitDx=0;exitDy=0;endArrow=none;startFill=0;strokeWidth=3;" edge="1" parent="1" source="7WJoirEgyPjlSJRLRqlb-178">
          <mxGeometry relative="1" as="geometry">
            <mxPoint x="570" y="160" as="targetPoint" />
          </mxGeometry>
        </mxCell>
        <mxCell id="7WJoirEgyPjlSJRLRqlb-178" value="مرتبه علمی" style="ellipse;whiteSpace=wrap;html=1;" parent="1" vertex="1">
          <mxGeometry x="610" y="101" width="50" height="37" as="geometry" />
        </mxCell>
        <mxCell id="JW2hQLIgeUgNGmDU9fiR-42" style="edgeStyle=none;rounded=0;orthogonalLoop=1;jettySize=auto;html=1;exitX=0.5;exitY=1;exitDx=0;exitDy=0;entryX=0.75;entryY=0;entryDx=0;entryDy=0;endArrow=none;startFill=0;strokeWidth=3;" edge="1" parent="1" source="7WJoirEgyPjlSJRLRqlb-179" target="7WJoirEgyPjlSJRLRqlb-12">
          <mxGeometry relative="1" as="geometry" />
        </mxCell>
        <mxCell id="7WJoirEgyPjlSJRLRqlb-179" value="کد استاد" style="ellipse;whiteSpace=wrap;html=1;" parent="1" vertex="1">
          <mxGeometry x="660" y="101" width="50" height="37" as="geometry" />
        </mxCell>
        <mxCell id="JW2hQLIgeUgNGmDU9fiR-43" style="edgeStyle=none;rounded=0;orthogonalLoop=1;jettySize=auto;html=1;exitX=0.5;exitY=1;exitDx=0;exitDy=0;endArrow=none;startFill=0;strokeWidth=3;" edge="1" parent="1" source="7WJoirEgyPjlSJRLRqlb-180">
          <mxGeometry relative="1" as="geometry">
            <mxPoint x="580" y="160" as="targetPoint" />
          </mxGeometry>
        </mxCell>
        <mxCell id="7WJoirEgyPjlSJRLRqlb-180" value="ایمیل" style="ellipse;whiteSpace=wrap;html=1;" parent="1" vertex="1">
          <mxGeometry x="710" y="101" width="50" height="37" as="geometry" />
        </mxCell>
        <mxCell id="JW2hQLIgeUgNGmDU9fiR-53" style="edgeStyle=none;rounded=0;orthogonalLoop=1;jettySize=auto;html=1;exitX=0.5;exitY=0;exitDx=0;exitDy=0;entryX=0;entryY=0.75;entryDx=0;entryDy=0;endArrow=none;startFill=0;strokeWidth=3;" edge="1" parent="1" source="JW2hQLIgeUgNGmDU9fiR-1" target="7WJoirEgyPjlSJRLRqlb-14">
          <mxGeometry relative="1" as="geometry" />
        </mxCell>
        <mxCell id="JW2hQLIgeUgNGmDU9fiR-1" value="نام درس" style="ellipse;whiteSpace=wrap;html=1;" vertex="1" parent="1">
          <mxGeometry x="-80" y="248" width="50" height="37" as="geometry" />
        </mxCell>
        <mxCell id="JW2hQLIgeUgNGmDU9fiR-2" value="کد درس " style="ellipse;whiteSpace=wrap;html=1;" vertex="1" parent="1">
          <mxGeometry x="-30" y="248" width="50" height="37" as="geometry" />
        </mxCell>
        <mxCell id="JW2hQLIgeUgNGmDU9fiR-59" style="edgeStyle=orthogonalEdgeStyle;rounded=0;orthogonalLoop=1;jettySize=auto;html=1;exitX=0.5;exitY=0;exitDx=0;exitDy=0;entryX=0.523;entryY=-0.017;entryDx=0;entryDy=0;entryPerimeter=0;endArrow=none;startFill=0;strokeWidth=3;" edge="1" parent="1" source="JW2hQLIgeUgNGmDU9fiR-3" target="7WJoirEgyPjlSJRLRqlb-122">
          <mxGeometry relative="1" as="geometry">
            <mxPoint x="134.77777777777783" y="190" as="targetPoint" />
            <Array as="points">
              <mxPoint x="135" y="177" />
            </Array>
          </mxGeometry>
        </mxCell>
        <mxCell id="JW2hQLIgeUgNGmDU9fiR-3" value="تعداد واحد" style="ellipse;whiteSpace=wrap;html=1;" vertex="1" parent="1">
          <mxGeometry x="110" y="244.5" width="50" height="37" as="geometry" />
        </mxCell>
        <mxCell id="JW2hQLIgeUgNGmDU9fiR-64" style="edgeStyle=none;rounded=0;orthogonalLoop=1;jettySize=auto;html=1;exitX=1;exitY=0.5;exitDx=0;exitDy=0;entryX=0;entryY=0.25;entryDx=0;entryDy=0;endArrow=none;startFill=0;strokeWidth=3;" edge="1" parent="1" source="JW2hQLIgeUgNGmDU9fiR-5" target="7WJoirEgyPjlSJRLRqlb-15">
          <mxGeometry relative="1" as="geometry" />
        </mxCell>
        <mxCell id="JW2hQLIgeUgNGmDU9fiR-5" value="کد قسمت" style="ellipse;whiteSpace=wrap;html=1;" vertex="1" parent="1">
          <mxGeometry x="-320" y="288" width="50" height="37" as="geometry" />
        </mxCell>
        <mxCell id="JW2hQLIgeUgNGmDU9fiR-65" style="edgeStyle=none;rounded=0;orthogonalLoop=1;jettySize=auto;html=1;exitX=1;exitY=0.5;exitDx=0;exitDy=0;entryX=0;entryY=0.5;entryDx=0;entryDy=0;endArrow=none;startFill=0;strokeWidth=3;" edge="1" parent="1" source="JW2hQLIgeUgNGmDU9fiR-6" target="7WJoirEgyPjlSJRLRqlb-15">
          <mxGeometry relative="1" as="geometry" />
        </mxCell>
        <mxCell id="JW2hQLIgeUgNGmDU9fiR-6" value="نام قسمت" style="ellipse;whiteSpace=wrap;html=1;" vertex="1" parent="1">
          <mxGeometry x="-320" y="325" width="50" height="37" as="geometry" />
        </mxCell>
        <mxCell id="JW2hQLIgeUgNGmDU9fiR-66" style="edgeStyle=none;rounded=0;orthogonalLoop=1;jettySize=auto;html=1;exitX=1;exitY=0.5;exitDx=0;exitDy=0;endArrow=none;startFill=0;strokeWidth=3;" edge="1" parent="1" source="JW2hQLIgeUgNGmDU9fiR-8">
          <mxGeometry relative="1" as="geometry">
            <mxPoint x="-220" y="350" as="targetPoint" />
          </mxGeometry>
        </mxCell>
        <mxCell id="JW2hQLIgeUgNGmDU9fiR-8" value="سر فصل ها" style="ellipse;whiteSpace=wrap;html=1;" vertex="1" parent="1">
          <mxGeometry x="-320" y="365" width="50" height="37" as="geometry" />
        </mxCell>
        <mxCell id="JW2hQLIgeUgNGmDU9fiR-9" value="کد ترم" style="ellipse;whiteSpace=wrap;html=1;" vertex="1" parent="1">
          <mxGeometry x="90" y="528.5" width="50" height="37" as="geometry" />
        </mxCell>
        <mxCell id="JW2hQLIgeUgNGmDU9fiR-10" value="سال" style="ellipse;whiteSpace=wrap;html=1;" vertex="1" parent="1">
          <mxGeometry x="35" y="528.5" width="50" height="37" as="geometry" />
        </mxCell>
        <mxCell id="JW2hQLIgeUgNGmDU9fiR-11" value="نیم سال" style="ellipse;whiteSpace=wrap;html=1;" vertex="1" parent="1">
          <mxGeometry x="-20" y="528.5" width="50" height="37" as="geometry" />
        </mxCell>
        <mxCell id="JW2hQLIgeUgNGmDU9fiR-48" style="edgeStyle=none;rounded=0;orthogonalLoop=1;jettySize=auto;html=1;exitX=0.5;exitY=0;exitDx=0;exitDy=0;entryX=0.75;entryY=1;entryDx=0;entryDy=0;endArrow=none;startFill=0;strokeWidth=3;" edge="1" parent="1" source="JW2hQLIgeUgNGmDU9fiR-12" target="7WJoirEgyPjlSJRLRqlb-19">
          <mxGeometry relative="1" as="geometry" />
        </mxCell>
        <mxCell id="JW2hQLIgeUgNGmDU9fiR-12" value="کد گروه" style="ellipse;whiteSpace=wrap;html=1;" vertex="1" parent="1">
          <mxGeometry x="340" y="401" width="50" height="37" as="geometry" />
        </mxCell>
        <mxCell id="JW2hQLIgeUgNGmDU9fiR-47" style="edgeStyle=none;rounded=0;orthogonalLoop=1;jettySize=auto;html=1;exitX=0.5;exitY=0;exitDx=0;exitDy=0;endArrow=none;startFill=0;strokeWidth=3;" edge="1" parent="1" source="JW2hQLIgeUgNGmDU9fiR-17">
          <mxGeometry relative="1" as="geometry">
            <mxPoint x="300" y="360" as="targetPoint" />
          </mxGeometry>
        </mxCell>
        <mxCell id="JW2hQLIgeUgNGmDU9fiR-17" value="سن" style="ellipse;whiteSpace=wrap;html=1;" vertex="1" parent="1">
          <mxGeometry x="290" y="401" width="50" height="37" as="geometry" />
        </mxCell>
        <mxCell id="JW2hQLIgeUgNGmDU9fiR-46" style="edgeStyle=none;rounded=0;orthogonalLoop=1;jettySize=auto;html=1;exitX=0.5;exitY=0;exitDx=0;exitDy=0;entryX=0.5;entryY=1;entryDx=0;entryDy=0;endArrow=none;startFill=0;strokeWidth=3;" edge="1" parent="1" source="JW2hQLIgeUgNGmDU9fiR-18" target="7WJoirEgyPjlSJRLRqlb-19">
          <mxGeometry relative="1" as="geometry" />
        </mxCell>
        <mxCell id="JW2hQLIgeUgNGmDU9fiR-18" value="نام خوانوادکی" style="ellipse;whiteSpace=wrap;html=1;" vertex="1" parent="1">
          <mxGeometry x="240" y="400" width="50" height="37" as="geometry" />
        </mxCell>
        <mxCell id="JW2hQLIgeUgNGmDU9fiR-45" style="edgeStyle=none;rounded=0;orthogonalLoop=1;jettySize=auto;html=1;exitX=0.5;exitY=0;exitDx=0;exitDy=0;entryX=0.25;entryY=1;entryDx=0;entryDy=0;endArrow=none;startFill=0;strokeWidth=3;" edge="1" parent="1" source="JW2hQLIgeUgNGmDU9fiR-19" target="7WJoirEgyPjlSJRLRqlb-19">
          <mxGeometry relative="1" as="geometry" />
        </mxCell>
        <mxCell id="JW2hQLIgeUgNGmDU9fiR-19" value="نام" style="ellipse;whiteSpace=wrap;html=1;" vertex="1" parent="1">
          <mxGeometry x="190" y="400" width="50" height="37" as="geometry" />
        </mxCell>
        <mxCell id="JW2hQLIgeUgNGmDU9fiR-20" value="کد دانشجو" style="ellipse;whiteSpace=wrap;html=1;" vertex="1" parent="1">
          <mxGeometry x="140" y="399" width="50" height="37" as="geometry" />
        </mxCell>
        <mxCell id="JW2hQLIgeUgNGmDU9fiR-50" style="edgeStyle=none;rounded=0;orthogonalLoop=1;jettySize=auto;html=1;exitX=1;exitY=0.5;exitDx=0;exitDy=0;entryX=0;entryY=0.25;entryDx=0;entryDy=0;endArrow=none;startFill=0;strokeWidth=3;" edge="1" parent="1" source="JW2hQLIgeUgNGmDU9fiR-23" target="7WJoirEgyPjlSJRLRqlb-129">
          <mxGeometry relative="1" as="geometry" />
        </mxCell>
        <mxCell id="JW2hQLIgeUgNGmDU9fiR-23" value="تعداد دانشجویان" style="ellipse;whiteSpace=wrap;html=1;" vertex="1" parent="1">
          <mxGeometry x="315" y="185" width="50" height="37" as="geometry" />
        </mxCell>
        <mxCell id="JW2hQLIgeUgNGmDU9fiR-51" style="edgeStyle=none;rounded=0;orthogonalLoop=1;jettySize=auto;html=1;exitX=1;exitY=0.5;exitDx=0;exitDy=0;endArrow=none;startFill=0;strokeWidth=3;" edge="1" parent="1" source="JW2hQLIgeUgNGmDU9fiR-24">
          <mxGeometry relative="1" as="geometry">
            <mxPoint x="420" y="243.77777777777783" as="targetPoint" />
          </mxGeometry>
        </mxCell>
        <mxCell id="JW2hQLIgeUgNGmDU9fiR-24" value="تاریخ" style="ellipse;whiteSpace=wrap;html=1;" vertex="1" parent="1">
          <mxGeometry x="315" y="225" width="50" height="37" as="geometry" />
        </mxCell>
        <mxCell id="JW2hQLIgeUgNGmDU9fiR-34" style="edgeStyle=none;rounded=0;orthogonalLoop=1;jettySize=auto;html=1;exitX=0.5;exitY=0;exitDx=0;exitDy=0;entryX=0.25;entryY=1;entryDx=0;entryDy=0;endArrow=none;startFill=0;strokeWidth=3;" edge="1" parent="1" source="JW2hQLIgeUgNGmDU9fiR-26" target="7WJoirEgyPjlSJRLRqlb-131">
          <mxGeometry relative="1" as="geometry" />
        </mxCell>
        <mxCell id="JW2hQLIgeUgNGmDU9fiR-26" value="تاریخ انتساب" style="ellipse;whiteSpace=wrap;html=1;" vertex="1" parent="1">
          <mxGeometry x="495" y="353" width="50" height="37" as="geometry" />
        </mxCell>
        <mxCell id="JW2hQLIgeUgNGmDU9fiR-27" value="اسم دانشکده" style="ellipse;whiteSpace=wrap;html=1;" vertex="1" parent="1">
          <mxGeometry x="545" y="353" width="50" height="37" as="geometry" />
        </mxCell>
        <mxCell id="JW2hQLIgeUgNGmDU9fiR-29" value="اسم گروه" style="ellipse;whiteSpace=wrap;html=1;" vertex="1" parent="1">
          <mxGeometry x="675" y="353" width="50" height="37" as="geometry" />
        </mxCell>
        <mxCell id="JW2hQLIgeUgNGmDU9fiR-33" style="edgeStyle=none;rounded=0;orthogonalLoop=1;jettySize=auto;html=1;exitX=0.5;exitY=0;exitDx=0;exitDy=0;entryX=0.25;entryY=1;entryDx=0;entryDy=0;endArrow=none;startFill=0;strokeWidth=3;" edge="1" parent="1" source="JW2hQLIgeUgNGmDU9fiR-30" target="7WJoirEgyPjlSJRLRqlb-130">
          <mxGeometry relative="1" as="geometry" />
        </mxCell>
        <mxCell id="JW2hQLIgeUgNGmDU9fiR-30" value="تاریخ انتساب" style="ellipse;whiteSpace=wrap;html=1;" vertex="1" parent="1">
          <mxGeometry x="625" y="353" width="50" height="37" as="geometry" />
        </mxCell>
        <mxCell id="JW2hQLIgeUgNGmDU9fiR-32" style="edgeStyle=none;rounded=0;orthogonalLoop=1;jettySize=auto;html=1;exitX=0.5;exitY=0;exitDx=0;exitDy=0;entryX=0.25;entryY=1;entryDx=0;entryDy=0;endArrow=none;startFill=0;strokeWidth=3;" edge="1" parent="1" source="JW2hQLIgeUgNGmDU9fiR-29" target="7WJoirEgyPjlSJRLRqlb-130">
          <mxGeometry relative="1" as="geometry">
            <mxPoint x="670" y="270" as="targetPoint" />
          </mxGeometry>
        </mxCell>
        <mxCell id="JW2hQLIgeUgNGmDU9fiR-35" style="edgeStyle=none;rounded=0;orthogonalLoop=1;jettySize=auto;html=1;exitX=0.5;exitY=0;exitDx=0;exitDy=0;entryX=0.25;entryY=1;entryDx=0;entryDy=0;endArrow=none;startFill=0;strokeWidth=3;" edge="1" parent="1" source="JW2hQLIgeUgNGmDU9fiR-27" target="7WJoirEgyPjlSJRLRqlb-131">
          <mxGeometry relative="1" as="geometry" />
        </mxCell>
        <mxCell id="JW2hQLIgeUgNGmDU9fiR-40" style="edgeStyle=none;rounded=0;orthogonalLoop=1;jettySize=auto;html=1;exitX=0.5;exitY=1;exitDx=0;exitDy=0;entryX=0.376;entryY=-0.017;entryDx=0;entryDy=0;entryPerimeter=0;endArrow=none;startFill=0;strokeWidth=3;" edge="1" parent="1" source="7WJoirEgyPjlSJRLRqlb-177" target="7WJoirEgyPjlSJRLRqlb-12">
          <mxGeometry relative="1" as="geometry" />
        </mxCell>
        <mxCell id="JW2hQLIgeUgNGmDU9fiR-44" style="edgeStyle=none;rounded=0;orthogonalLoop=1;jettySize=auto;html=1;exitX=0.5;exitY=0;exitDx=0;exitDy=0;entryX=1.073;entryY=0.44;entryDx=0;entryDy=0;entryPerimeter=0;endArrow=none;startFill=0;strokeWidth=3;" edge="1" parent="1" source="JW2hQLIgeUgNGmDU9fiR-20" target="7WJoirEgyPjlSJRLRqlb-121">
          <mxGeometry relative="1" as="geometry" />
        </mxCell>
        <mxCell id="JW2hQLIgeUgNGmDU9fiR-52" style="edgeStyle=none;rounded=0;orthogonalLoop=1;jettySize=auto;html=1;exitX=0.5;exitY=0;exitDx=0;exitDy=0;endArrow=none;startFill=0;strokeWidth=3;" edge="1" parent="1" source="JW2hQLIgeUgNGmDU9fiR-2">
          <mxGeometry relative="1" as="geometry">
            <mxPoint x="30" y="180" as="targetPoint" />
          </mxGeometry>
        </mxCell>
        <mxCell id="JW2hQLIgeUgNGmDU9fiR-67" style="edgeStyle=none;rounded=0;orthogonalLoop=1;jettySize=auto;html=1;exitX=0;exitY=1;exitDx=0;exitDy=0;entryX=0.696;entryY=0.05;entryDx=0;entryDy=0;entryPerimeter=0;endArrow=none;startFill=0;strokeWidth=3;" edge="1" parent="1" source="7WJoirEgyPjlSJRLRqlb-21" target="JW2hQLIgeUgNGmDU9fiR-11">
          <mxGeometry relative="1" as="geometry" />
        </mxCell>
        <mxCell id="JW2hQLIgeUgNGmDU9fiR-73" value="1" style="text;html=1;align=center;verticalAlign=middle;resizable=0;points=[];autosize=1;strokeColor=none;fillColor=none;" vertex="1" parent="1">
          <mxGeometry x="445" y="258" width="30" height="30" as="geometry" />
        </mxCell>
      </root>
    </mxGraphModel>
  </diagram>
</mxfile>
